PathFileType	4	(X/Y/Z)	./resultDataOpenSim/trcMotMarkerGrf/sub06/qtm-04-05.trc
DataRate	CameraRate	NumFrames	NumMarkers	Units	OrigDataRate	OrigDataStartFrame	OrigNumFrames
250.000000	250.000000	10	24	m	250.000000	199	530
Frame#	Time	L.Toe.Tip			R.Toe.Tip			L.Ankle.Lat			R.Ankle.Lat			L.Ankle.Med			R.Ankle.Med			L.Heel			R.Heel			L.Knee.Lat			R.Knee.Lat			L.Knee.Med			R.Knee.Med			L.Thigh.Upper			R.Thigh.Upper			L.ASIS			R.ASIS			V.Sacral			L.Acromium			R.Acromium			C7			L.Elbow			R.Elbow			L.Wrist.Lat			R.Wrist.Lat
		X1	Y1	Z1	X2	Y2	Z2	X3	Y3	Z3	X4	Y4	Z4	X5	Y5	Z5	X6	Y6	Z6	X7	Y7	Z7	X8	Y8	Z8	X9	Y9	Z9	X10	Y10	Z10	X11	Y11	Z11	X12	Y12	Z12	X13	Y13	Z13	X14	Y14	Z14	X15	Y15	Z15	X16	Y16	Z16	X17	Y17	Z17	X18	Y18	Z18	X19	Y19	Z19	X20	Y20	Z20	X21	Y21	Z21	X22	Y22	Z22	X23	Y23	Z23	X24	Y24	Z24

199	0.792	0.058614369	-0.039983295	-0.026727474	-0.5004203	0.091716732	0.14226473	-0.062975532	-0.0097494586	-0.045498967	-0.50330242	0.23044201	0.16610631	-0.060116227	0.0056974581	0.042002784	-0.4648006	0.21576477	0.085834761	-0.13976139	-0.032792673	0.0024352613	-0.52741112	0.27615108	0.10234279	0.04716021	0.34604304	-0.080437262	-0.14111518	0.31249024	0.22203097	0.029815578	0.34776322	0.040792371	-0.15250561	0.3002353	0.090217465	-0.10764034	0.71229354	-0.14084859	-0.17970944	0.67245192	0.19609086	-0.047239376	0.74906909	-0.084898449	-0.077545816	0.7340833	0.16181692	-0.25100995	0.81919028	0.026946862	-0.1256592	1.2141904	-0.16810832	-0.12566685	1.2232187	0.19604672	-0.20532866	1.2579464	0.011159567	-0.23385391	0.91873596	-0.20285495	-0.18682849	0.91142407	0.28371636	-0.14942963	0.69949778	-0.27784453	0.012413722	0.76149573	0.29169569
200	0.796	0.058594352	-0.039952602	-0.026781446	-0.48270101	0.093027496	0.14166787	-0.063005025	-0.0096312018	-0.045464836	-0.48749089	0.23161672	0.16564133	-0.060164283	0.0058144881	0.041996196	-0.44888203	0.21733307	0.085126909	-0.13977727	-0.032673316	0.0024507632	-0.51257253	0.27710944	0.1020698	0.047940613	0.34616588	-0.080034501	-0.1259943	0.31517007	0.22117895	0.030850331	0.3480239	0.04102522	-0.13801441	0.30293346	0.089054199	-0.10282562	0.71407306	-0.14129468	-0.17291898	0.67510162	0.1960474	-0.041734044	0.75106219	-0.085527067	-0.071417395	0.73658026	0.16132638	-0.24502834	0.82194962	0.025821008	-0.11914931	1.2168833	-0.16805181	-0.1202463	1.2255448	0.19620907	-0.19910514	1.2604019	0.011072566	-0.22477635	0.92010868	-0.20389601	-0.18310103	0.91385873	0.28258472	-0.136573	0.70168396	-0.27689143	0.013482225	0.76097125	0.29239919
201	0.8	0.058565076	-0.039897854	-0.026881152	-0.4648028	0.094242254	0.14105774	-0.063067086	-0.0095028035	-0.045460294	-0.47172283	0.2325174	0.16515208	-0.060216516	0.0059499963	0.041974362	-0.4329709	0.21875389	0.084576942	-0.13979404	-0.032543096	0.0024537201	-0.49768997	0.27783111	0.10180667	0.048525496	0.34631611	-0.079591052	-0.11089287	0.31813109	0.22024543	0.031691813	0.34821833	0.041323795	-0.12350441	0.30591258	0.087791665	-0.097820514	0.71597123	-0.14174275	-0.16609398	0.67781917	0.19594428	-0.036397791	0.75308017	-0.086096354	-0.065241863	0.73914277	0.160834	-0.23915093	0.82456877	0.025246128	-0.11273044	1.2196729	-0.16796439	-0.1148275	1.227946	0.19635041	-0.19291095	1.2629094	0.011006727	-0.21559615	0.92155785	-0.20506798	-0.17934722	0.91642093	0.28147259	-0.12369069	0.70405082	-0.27585346	0.014449905	0.76063406	0.29313083
202	0.804	0.058533884	-0.039840371	-0.026988788	-0.44670151	0.095331479	0.14046087	-0.063157051	-0.0093602596	-0.045485141	-0.4558441	0.23322014	0.16472831	-0.060267034	0.0061069567	0.041941308	-0.41702361	0.22003691	0.084121779	-0.1398078	-0.032394094	0.0024445678	-0.48280089	0.27830505	0.10155058	0.04903986	0.3465089	-0.079123115	-0.09582786	0.32137634	0.21923985	0.032292858	0.34835733	0.04168911	-0.10901967	0.30910618	0.086471031	-0.092730845	0.71794783	-0.14216149	-0.1594292	0.68070068	0.19595838	-0.031140066	0.75516001	-0.086598579	-0.059014779	0.74178186	0.16035413	-0.23338236	0.8270182	0.02528523	-0.10640742	1.2225484	-0.16783423	-0.10940965	1.2304128	0.19647206	-0.18674549	1.265445	0.010952386	-0.20636392	0.92311129	-0.2063109	-0.17558282	0.91910185	0.28037771	-0.11077145	0.70660929	-0.27471574	0.015328201	0.76047836	0.2938882
203	0.808	0.058511447	-0.039791959	-0.027080358	-0.42837722	0.096285674	0.1399239	-0.063232097	-0.0091936609	-0.045502724	-0.4397489	0.23379873	0.16442677	-0.060311076	0.0062850054	0.041901983	-0.40103085	0.2211798	0.083677726	-0.13981579	-0.032222691	0.0024263831	-0.46794339	0.27851434	0.10129361	0.049568292	0.34675057	-0.078647966	-0.080814459	0.32490759	0.21817342	0.032588064	0.34845783	0.042088627	-0.094540208	0.31245619	0.085132759	-0.087675238	0.71997446	-0.14253533	-0.15282167	0.68371272	0.19608798	-0.02575454	0.75736248	-0.087056659	-0.052754809	0.74449874	0.15987853	-0.22762222	0.82939663	0.025814262	-0.10016522	1.2254994	-0.16765975	-0.10399278	1.2329353	0.19657489	-0.18060274	1.2680051	0.010907174	-0.19724484	0.92480671	-0.20740283	-0.17186708	0.92189043	0.27930288	-0.097811138	0.70935928	-0.27346991	0.01612811	0.76049467	0.29467099
204	0.812	0.058494219	-0.03975724	-0.02715159	-0.40980872	0.097121675	0.1394896	-0.063259431	-0.0089985934	-0.045478212	-0.4234493	0.23426955	0.16422717	-0.060347106	0.0064810462	0.041859983	-0.38503642	0.22217235	0.083190571	-0.13982046	-0.032031341	0.0024013504	-0.45314216	0.27844166	0.10102208	0.050102788	0.34703709	-0.078177493	-0.065873654	0.32871709	0.21705051	0.032499239	0.34852836	0.042472797	-0.079989498	0.31594311	0.083782036	-0.082709667	0.72203731	-0.1428476	-0.14610678	0.68678478	0.19628686	-0.020186929	0.75969369	-0.087517527	-0.046477977	0.74728765	0.15938921	-0.22174158	0.83188234	0.026565349	-0.093946371	1.2285098	-0.1674654	-0.098571282	1.235501	0.19665788	-0.17448079	1.2705911	0.010873838	-0.18829828	0.92663792	-0.20827662	-0.16825287	0.92477814	0.27825255	-0.084808529	0.71229546	-0.2721241	0.016866983	0.76067413	0.29548537
205	0.816	0.058475265	-0.039733895	-0.02720788	-0.39101206	0.097836309	0.1391496	-0.063263991	-0.0087803855	-0.045426854	-0.40706637	0.23459033	0.16405449	-0.060377259	0.0066934495	0.041814394	-0.36909546	0.22299524	0.082675057	-0.13983048	-0.031826678	0.0023677623	-0.43840752	0.27807164	0.10071974	0.050567105	0.3473679	-0.077707656	-0.051031019	0.33278755	0.21587271	0.031992198	0.34857918	0.042814142	-0.065440971	0.31958964	0.082393753	-0.077740549	0.7241327	-0.14306988	-0.13923367	0.68989011	0.19652573	-0.014575658	0.7620907	-0.08804517	-0.040185635	0.75014679	0.15887688	-0.21571127	0.83456341	0.027284581	-0.087676592	1.2315483	-0.16728304	-0.093137695	1.2380936	0.19672173	-0.16838277	1.2732009	0.010856785	-0.17941425	0.9285529	-0.20906972	-0.16474425	0.92775427	0.27722528	-0.071759325	0.71541188	-0.27069524	0.01757403	0.76100442	0.29634143
206	0.82	0.058454662	-0.039715511	-0.027255907	-0.37205375	0.098386912	0.13885018	-0.063304855	-0.0085475016	-0.04540045	-0.39075838	0.23469073	0.16382376	-0.060403966	0.0069243007	0.041759443	-0.35321814	0.223628	0.082187769	-0.139851	-0.031617731	0.0023291418	-0.42374162	0.27738429	0.10038278	0.050878582	0.34774668	-0.077225703	-0.036308353	0.33709387	0.21464002	0.031142226	0.34865961	0.043134538	-0.051187525	0.32347848	0.080933519	-0.07264931	0.72623781	-0.14315086	-0.13219707	0.69302805	0.19676189	-0.0090439804	0.76448359	-0.088716866	-0.033869997	0.75307918	0.15834699	-0.20954426	0.83732419	0.027705952	-0.081328967	1.2345793	-0.16711356	-0.087685541	1.2406946	0.19677153	-0.16231185	1.2758253	0.010859685	-0.17048459	0.93050863	-0.20987694	-0.16130411	0.93080042	0.27621599	-0.058687549	0.71869548	-0.26919587	0.018286704	0.76146994	0.29723482
207	0.824	0.058435576	-0.03969739	-0.027299498	-0.35296234	0.098754821	0.13856183	-0.06340957	-0.008304065	-0.045427713	-0.37462327	0.23451257	0.16348416	-0.060427242	0.0071775838	0.041690272	-0.3373576	0.22406259	0.081717345	-0.13987048	-0.031408715	0.0023066177	-0.40913553	0.27636114	0.10002724	0.051026363	0.34817482	-0.076721985	-0.021719778	0.34161047	0.21334846	0.030122767	0.3488557	0.043487171	-0.037417754	0.32768228	0.079415296	-0.067456919	0.72830364	-0.14305252	-0.12496571	0.6961984	0.19695879	-0.0035598772	0.76682775	-0.089556213	-0.027523497	0.7560847	0.15781105	-0.20319969	0.83991368	0.027307831	-0.074961965	1.2375948	-0.16692941	-0.082207758	1.2432897	0.19681356	-0.15626489	1.2784462	0.010880746	-0.16150162	0.93249878	-0.21068222	-0.15789189	0.93389328	0.27522496	-0.045645386	0.72212519	-0.26763102	0.019020173	0.76205813	0.29813852
208	0.828	0.058419187	-0.039678396	-0.027339374	-0.3336406	0.099004632	0.1383176	-0.0635427	-0.0080429411	-0.045484516	-0.35871179	0.23400927	0.16301056	-0.060444668	0.0074565573	0.041609559	-0.3214998	0.22431608	0.081162859	-0.13987086	-0.031190283	0.002314844	-0.3945603	0.27500785	0.099665356	0.051072835	0.34865263	-0.076186257	-0.0072727641	0.34631817	0.21199108	0.029133539	0.34922977	0.043915802	-0.023998053	0.33214425	0.077942298	-0.062237325	0.73030343	-0.14283098	-0.11752179	0.69940481	0.19712845	0.0020244232	0.76908725	-0.090432852	-0.02114208	0.75915776	0.15727421	-0.1966629	0.84215106	0.025577263	-0.068669253	1.2406181	-0.166711	-0.076695376	1.2458738	0.19685173	-0.15023226	1.281039	0.010911784	-0.1525086	0.93453171	-0.21145054	-0.15448179	0.93701151	0.27425855	-0.032658136	0.72568331	-0.26600403	0.019730993	0.76276323	0.29902456
